<?xml version="1.0" encoding="UTF-8" standalone="no"?>
<!-- Created with Inkscape (http://www.inkscape.org/) -->

<svg
   xmlns:dc="http://purl.org/dc/elements/1.1/"
   xmlns:cc="http://creativecommons.org/ns#"
   xmlns:rdf="http://www.w3.org/1999/02/22-rdf-syntax-ns#"
   xmlns:svg="http://www.w3.org/2000/svg"
   xmlns="http://www.w3.org/2000/svg"
   xmlns:sodipodi="http://sodipodi.sourceforge.net/DTD/sodipodi-0.dtd"
   xmlns:inkscape="http://www.inkscape.org/namespaces/inkscape"
   width="32in"
   height="18in"
   viewBox="0 0 812.80001 457.20001"
   version="1.1"
   id="svg8"
   inkscape:version="0.92.4 (5da689c313, 2019-01-14)"
   sodipodi:docname="interloc_plate.svg">
  <defs
     id="defs2">
    <marker
       style="overflow:visible"
       refY="0.0"
       refX="0.0"
       orient="auto"
       id="DistanceX">
      <path
         id="path4520"
         style="stroke:#000000; stroke-width:0.5"
         d="M 3,-3 L -3,3 M 0,-5 L  0,5" />
    </marker>
    <pattern
       y="0"
       x="0"
       width="8"
       patternUnits="userSpaceOnUse"
       id="Hatch"
       height="8">
      <path
         id="path4523"
         stroke-width="0.25"
         stroke="#000000"
         linecap="square"
         d="M8 4 l-4,4" />
      <path
         id="path4525"
         stroke-width="0.25"
         stroke="#000000"
         linecap="square"
         d="M6 2 l-4,4" />
      <path
         id="path4527"
         stroke-width="0.25"
         stroke="#000000"
         linecap="square"
         d="M4 0 l-4,4" />
    </pattern>
    <symbol
       id="*Model_Space" />
    <symbol
       id="*Paper_Space" />
    <symbol
       id="*Paper_Space0" />
  </defs>
  <sodipodi:namedview
     id="base"
     pagecolor="#ffffff"
     bordercolor="#666666"
     borderopacity="1.0"
     inkscape:pageopacity="0.0"
     inkscape:pageshadow="2"
     inkscape:zoom="0.35"
     inkscape:cx="728.03107"
     inkscape:cy="997.25522"
     inkscape:document-units="mm"
     inkscape:current-layer="layer1"
     showgrid="false"
     units="in"
     inkscape:window-width="1920"
     inkscape:window-height="1017"
     inkscape:window-x="1912"
     inkscape:window-y="-8"
     inkscape:window-maximized="1" />
  <metadata
     id="metadata5">
    <rdf:RDF>
      <cc:Work
         rdf:about="">
        <dc:format>image/svg+xml</dc:format>
        <dc:type
           rdf:resource="http://purl.org/dc/dcmitype/StillImage" />
        <dc:title></dc:title>
      </cc:Work>
    </rdf:RDF>
  </metadata>
  <g
     inkscape:label="Calque 1"
     inkscape:groupmode="layer"
     id="layer1"
     transform="translate(0,160.20002)">
    <g
       id="g4762"
       transform="translate(-101.02788,-76.973624)"
       style="fill:none;stroke:#ff0000;stroke-opacity:1;stroke-width:0.0254;stroke-miterlimit:4;stroke-dasharray:none">
      <path
         id="path4535"
         style="fill:none;stroke:#ff0000;stroke-width:0.0254;stroke-linecap:round;stroke-opacity:1;stroke-miterlimit:4;stroke-dasharray:none"
         d="m 137.17142,-3.6508415 a 1.6000002,1.6000002 0 1 0 -3.2,0 1.6000002,1.6000002 0 1 0 3.2,0 z"
         inkscape:connector-curvature="0" />
      <path
         id="path4537"
         style="fill:none;stroke:#ff0000;stroke-width:0.0254;stroke-linecap:round;stroke-opacity:1;stroke-miterlimit:4;stroke-dasharray:none"
         d="m 137.17142,-15.65086 a 1.6000002,1.6000002 0 1 0 -3.2,0 1.6000002,1.6000002 0 1 0 3.2,0 z"
         inkscape:connector-curvature="0" />
      <path
         id="path4539"
         style="fill:none;stroke:#ff0000;stroke-width:0.0254;stroke-linecap:round;stroke-opacity:1;stroke-miterlimit:4;stroke-dasharray:none"
         d="m 189.17142,-55.650853 a 1.6,1.6 0 1 0 -3.2,0 1.6,1.6 0 1 0 3.2,0 z"
         inkscape:connector-curvature="0" />
      <path
         id="path4541"
         style="fill:none;stroke:#ff0000;stroke-width:0.0254;stroke-linecap:round;stroke-opacity:1;stroke-miterlimit:4;stroke-dasharray:none"
         d="m 177.17142,-55.650853 a 1.6000001,1.6000001 0 1 0 -3.2,0 1.6000001,1.6000001 0 1 0 3.2,0 z"
         inkscape:connector-curvature="0" />
      <path
         id="path4543"
         style="fill:none;stroke:#ff0000;stroke-width:0.0254;stroke-linecap:round;stroke-opacity:1;stroke-miterlimit:4;stroke-dasharray:none"
         d="m 265.17142,-15.65086 a 1.6000002,1.6000002 0 1 0 -3.2,0 1.6000002,1.6000002 0 1 0 3.2,0 z"
         inkscape:connector-curvature="0" />
      <path
         id="path4545"
         style="fill:none;stroke:#ff0000;stroke-width:0.0254;stroke-linecap:round;stroke-opacity:1;stroke-miterlimit:4;stroke-dasharray:none"
         d="m 137.17142,32.349134 a 1.6000002,1.6000002 0 1 0 -3.2,0 1.6000002,1.6000002 0 1 0 3.2,0 z"
         inkscape:connector-curvature="0" />
      <path
         id="path4547"
         style="fill:none;stroke:#ff0000;stroke-width:0.0254;stroke-linecap:round;stroke-opacity:1;stroke-miterlimit:4;stroke-dasharray:none"
         d="m 213.17142,-55.650853 a 1.6,1.6 0 1 0 -3.2,0 1.6,1.6 0 1 0 3.2,0 z"
         inkscape:connector-curvature="0" />
      <path
         id="path4549"
         style="fill:none;stroke:#ff0000;stroke-width:0.0254;stroke-linecap:round;stroke-opacity:1;stroke-miterlimit:4;stroke-dasharray:none"
         d="m 265.17142,20.349142 a 1.6000002,1.6000002 0 1 0 -3.2,0 1.6000002,1.6000002 0 1 0 3.2,0 z"
         inkscape:connector-curvature="0" />
      <path
         id="path4551"
         style="fill:none;stroke:#ff0000;stroke-width:0.0254;stroke-linecap:round;stroke-opacity:1;stroke-miterlimit:4;stroke-dasharray:none"
         d="m 189.17142,72.349133 a 1.6,1.6 0 1 0 -3.2,0 1.6,1.6 0 1 0 3.2,0 z"
         inkscape:connector-curvature="0" />
      <path
         id="path4553"
         style="fill:none;stroke:#ff0000;stroke-width:0.0254;stroke-linecap:round;stroke-opacity:1;stroke-miterlimit:4;stroke-dasharray:none"
         d="m 225.17142,-55.650853 a 1.6000001,1.6000001 0 1 0 -3.2,0 1.6000001,1.6000001 0 1 0 3.2,0 z"
         inkscape:connector-curvature="0" />
      <path
         id="path4555"
         style="fill:none;stroke:#ff0000;stroke-width:0.0254;stroke-linecap:round;stroke-opacity:1;stroke-miterlimit:4;stroke-dasharray:none"
         d="m 265.17142,32.349134 a 1.6000002,1.6000002 0 1 0 -3.2,0 1.6000002,1.6000002 0 1 0 3.2,0 z"
         inkscape:connector-curvature="0" />
      <path
         id="path4557"
         style="fill:none;stroke:#ff0000;stroke-width:0.0254;stroke-linecap:round;stroke-opacity:1;stroke-miterlimit:4;stroke-dasharray:none"
         d="m 177.17142,72.349133 a 1.6000001,1.6000001 0 1 0 -3.2,0 1.6000001,1.6000001 0 1 0 3.2,0 z"
         inkscape:connector-curvature="0" />
      <path
         id="path4559"
         style="fill:none;stroke:#ff0000;stroke-width:0.0254;stroke-linecap:round;stroke-opacity:1;stroke-miterlimit:4;stroke-dasharray:none"
         d="m 265.17142,-3.6508415 a 1.6000002,1.6000002 0 1 0 -3.2,0 1.6000002,1.6000002 0 1 0 3.2,0 z"
         inkscape:connector-curvature="0" />
      <path
         id="path4561"
         style="fill:none;stroke:#ff0000;stroke-width:0.0254;stroke-linecap:round;stroke-opacity:1;stroke-miterlimit:4;stroke-dasharray:none"
         d="m 213.17142,72.349133 a 1.6,1.6 0 1 0 -3.2,0 1.6,1.6 0 1 0 3.2,0 z"
         inkscape:connector-curvature="0" />
      <path
         id="path4563"
         style="fill:none;stroke:#ff0000;stroke-width:0.0254;stroke-linecap:round;stroke-opacity:1;stroke-miterlimit:4;stroke-dasharray:none"
         d="m 137.17142,20.349142 a 1.6000002,1.6000002 0 1 0 -3.2,0 1.6000002,1.6000002 0 1 0 3.2,0 z"
         inkscape:connector-curvature="0" />
      <path
         id="path4565"
         style="fill:none;stroke:#ff0000;stroke-width:0.0254;stroke-linecap:round;stroke-opacity:1;stroke-miterlimit:4;stroke-dasharray:none"
         d="m 265.13172,48.137509 a 1.3,1.3 0 1 0 -2.6,0 1.3,1.3 0 1 0 2.6,0 z"
         inkscape:connector-curvature="0" />
      <path
         id="path4567"
         style="fill:none;stroke:#ff0000;stroke-width:0.0254;stroke-linecap:round;stroke-opacity:1;stroke-miterlimit:4;stroke-dasharray:none"
         d="m 187.49215,82.736621 a 1.3,1.3 0 1 0 -2.6,0 1.3,1.3 0 1 0 2.6,0 z"
         inkscape:connector-curvature="0" />
      <path
         id="path4569"
         style="fill:none;stroke:#ff0000;stroke-width:0.0254;stroke-linecap:round;stroke-opacity:1;stroke-miterlimit:4;stroke-dasharray:none"
         d="m 136.61112,-31.439219 a 1.3,1.3 0 1 0 -2.6,0 1.3,1.3 0 1 0 2.6,0 z"
         inkscape:connector-curvature="0" />
      <path
         id="path4571"
         style="fill:none;stroke:#ff0000;stroke-width:0.0254;stroke-linecap:round;stroke-opacity:1;stroke-miterlimit:4;stroke-dasharray:none"
         d="m 214.25069,-66.038318 a 1.3,1.3 0 1 0 -2.6,0 1.3,1.3 0 1 0 2.6,0 z"
         inkscape:connector-curvature="0" />
      <path
         id="path4573"
         style="fill:none;stroke:#ff0000;stroke-width:0.0254;stroke-linecap:round;stroke-opacity:1;stroke-miterlimit:4;stroke-dasharray:none"
         d="m 229.32142,126.34913 a 2.2700006,2.2700006 0 1 0 -4.54,0 2.2700006,2.2700006 0 1 0 4.54,0 z"
         inkscape:connector-curvature="0" />
      <path
         id="path4575"
         style="fill:none;stroke:#ff0000;stroke-width:0.0254;stroke-linecap:round;stroke-opacity:1;stroke-miterlimit:4;stroke-dasharray:none"
         d="m 174.36142,126.34913 a 2.2700006,2.2700006 0 1 0 -4.54,0 2.2700006,2.2700006 0 1 0 4.54,0 z"
         inkscape:connector-curvature="0" />
      <path
         id="path4577"
         style="fill:none;stroke:#ff0000;stroke-width:0.0254;stroke-linecap:round;stroke-opacity:1;stroke-miterlimit:4;stroke-dasharray:none"
         d="m 223.52642,97.248329 a 1.3,1.3 0 1 0 -2.6,0 1.3,1.3 0 1 0 2.6,0 z"
         inkscape:connector-curvature="0" />
      <path
         id="path4579"
         style="fill:none;stroke:#ff0000;stroke-width:0.0254;stroke-linecap:round;stroke-opacity:1;stroke-miterlimit:4;stroke-dasharray:none"
         d="m 178.21642,97.248329 a 1.3,1.3 0 1 0 -2.6,0 1.3,1.3 0 1 0 2.6,0 z"
         inkscape:connector-curvature="0" />
      <path
         id="path4581"
         style="fill:none;stroke:#ff0000;stroke-width:0.0254;stroke-linecap:round;stroke-opacity:1;stroke-miterlimit:4;stroke-dasharray:none"
         d="M 277.47826,86.675738 V -21.526012"
         inkscape:connector-curvature="0" />
      <path
         id="path4583"
         style="fill:none;stroke:#ff0000;stroke-width:0.0254;stroke-linecap:round;stroke-opacity:1;stroke-miterlimit:4;stroke-dasharray:none"
         d="M 249.57142,163.34916 277.47826,86.675738"
         inkscape:connector-curvature="0" />
      <path
         id="path4585"
         style="fill:none;stroke:#ff0000;stroke-width:0.0254;stroke-linecap:round;stroke-opacity:1;stroke-miterlimit:4;stroke-dasharray:none"
         d="m 149.57142,163.34916 h 100"
         inkscape:connector-curvature="0" />
      <path
         id="path4587"
         style="fill:none;stroke:#ff0000;stroke-width:0.0254;stroke-linecap:round;stroke-opacity:1;stroke-miterlimit:4;stroke-dasharray:none"
         d="m 121.66458,86.675738 27.90684,76.673422"
         inkscape:connector-curvature="0" />
      <path
         id="path4589"
         style="fill:none;stroke:#ff0000;stroke-width:0.0254;stroke-linecap:round;stroke-opacity:1;stroke-miterlimit:4;stroke-dasharray:none"
         d="M 121.66458,-21.526012 V 86.675738"
         inkscape:connector-curvature="0" />
      <path
         id="path4591"
         style="fill:none;stroke:#ff0000;stroke-width:0.0254;stroke-linecap:round;stroke-opacity:1;stroke-miterlimit:4;stroke-dasharray:none"
         d="M 254.10466,-71.650853 H 145.03818"
         inkscape:connector-curvature="0" />
      <path
         id="path4593"
         style="fill:none;stroke:#ff0000;stroke-width:0.0254;stroke-linecap:round;stroke-opacity:1;stroke-miterlimit:4;stroke-dasharray:none"
         d="m 137.45524,55.671969 16.28193,36.536259"
         inkscape:connector-curvature="0" />
      <path
         id="path4595"
         style="fill:none;stroke:#ff0000;stroke-width:0.0254;stroke-linecap:round;stroke-opacity:1;stroke-miterlimit:4;stroke-dasharray:none"
         d="M 169.26509,85.288422 152.98316,48.752136"
         inkscape:connector-curvature="0" />
      <path
         id="path4597"
         style="fill:none;stroke:#ff0000;stroke-width:0.0254;stroke-linecap:round;stroke-opacity:1;stroke-miterlimit:4;stroke-dasharray:none"
         d="M 226.7632,83.268275 263.29946,66.986346"
         inkscape:connector-curvature="0" />
      <path
         id="path4599"
         style="fill:none;stroke:#ff0000;stroke-width:0.0254;stroke-linecap:round;stroke-opacity:1;stroke-miterlimit:4;stroke-dasharray:none"
         d="M 256.37964,51.458427 219.84338,67.740356"
         inkscape:connector-curvature="0" />
      <path
         id="path4601"
         style="fill:none;stroke:#ff0000;stroke-width:0.0254;stroke-linecap:round;stroke-opacity:1;stroke-miterlimit:4;stroke-dasharray:none"
         d="m 277.47826,-21.526012 -23.3736,-50.124841"
         inkscape:connector-curvature="0" />
      <path
         id="path4603"
         style="fill:none;stroke:#ff0000;stroke-width:0.0254;stroke-linecap:round;stroke-opacity:1;stroke-miterlimit:4;stroke-dasharray:none"
         d="m 145.03818,-71.650853 -23.3736,50.124841"
         inkscape:connector-curvature="0" />
      <path
         id="path4605"
         style="fill:none;stroke:#ff0000;stroke-width:0.0254;stroke-linecap:round;stroke-opacity:1;stroke-miterlimit:4;stroke-dasharray:none"
         d="m 153.73717,92.208228 a 8.5000002,8.5000002 0 0 0 15.52792,-6.919806"
         inkscape:connector-curvature="0" />
      <path
         id="path4607"
         style="fill:none;stroke:#ff0000;stroke-width:0.0254;stroke-linecap:round;stroke-opacity:1;stroke-miterlimit:4;stroke-dasharray:none"
         d="m 152.98316,48.752136 a 8.5000057,8.5000057 0 0 0 -15.52792,6.919833"
         inkscape:connector-curvature="0" />
      <path
         id="path4609"
         style="fill:none;stroke:#ff0000;stroke-width:0.0254;stroke-linecap:round;stroke-opacity:1;stroke-miterlimit:4;stroke-dasharray:none"
         d="M 263.29946,66.986346 A 8.5000033,8.5000033 0 0 0 256.37964,51.458427"
         inkscape:connector-curvature="0" />
      <path
         id="path4611"
         style="fill:none;stroke:#ff0000;stroke-width:0.0254;stroke-linecap:round;stroke-opacity:1;stroke-miterlimit:4;stroke-dasharray:none"
         d="m 219.84338,67.740356 a 8.5000028,8.5000028 0 0 0 6.91982,15.527919"
         inkscape:connector-curvature="0" />
    </g>
  </g>
</svg>
