<?xml version="1.0" encoding="UTF-8" standalone="no"?>
<!-- Created with Inkscape (http://www.inkscape.org/) -->

<svg
   xmlns:dc="http://purl.org/dc/elements/1.1/"
   xmlns:cc="http://creativecommons.org/ns#"
   xmlns:rdf="http://www.w3.org/1999/02/22-rdf-syntax-ns#"
   xmlns:svg="http://www.w3.org/2000/svg"
   xmlns="http://www.w3.org/2000/svg"
   xmlns:sodipodi="http://sodipodi.sourceforge.net/DTD/sodipodi-0.dtd"
   xmlns:inkscape="http://www.inkscape.org/namespaces/inkscape"
   width="32in"
   height="18in"
   viewBox="0 0 812.80001 457.20001"
   version="1.1"
   id="svg8"
   inkscape:version="0.92.4 (5da689c313, 2019-01-14)"
   sodipodi:docname="interloc_plate.svg">
  <defs
     id="defs2">
    <marker
       style="overflow:visible"
       refY="0.0"
       refX="0.0"
       orient="auto"
       id="DistanceX">
      <path
         id="path817"
         style="stroke:#000000; stroke-width:0.5"
         d="M 3,-3 L -3,3 M 0,-5 L  0,5" />
    </marker>
    <pattern
       y="0"
       x="0"
       width="8"
       patternUnits="userSpaceOnUse"
       id="Hatch"
       height="8">
      <path
         id="path820"
         stroke-width="0.25"
         stroke="#000000"
         linecap="square"
         d="M8 4 l-4,4" />
      <path
         id="path822"
         stroke-width="0.25"
         stroke="#000000"
         linecap="square"
         d="M6 2 l-4,4" />
      <path
         id="path824"
         stroke-width="0.25"
         stroke="#000000"
         linecap="square"
         d="M4 0 l-4,4" />
    </pattern>
    <symbol
       id="*Model_Space" />
    <symbol
       id="*Paper_Space" />
    <symbol
       id="*Paper_Space0" />
  </defs>
  <sodipodi:namedview
     id="base"
     pagecolor="#ffffff"
     bordercolor="#666666"
     borderopacity="1.0"
     inkscape:pageopacity="0.0"
     inkscape:pageshadow="2"
     inkscape:zoom="1.4"
     inkscape:cx="589.16724"
     inkscape:cy="1235.7679"
     inkscape:document-units="mm"
     inkscape:current-layer="g930"
     showgrid="false"
     units="in"
     inkscape:window-width="1920"
     inkscape:window-height="1017"
     inkscape:window-x="1912"
     inkscape:window-y="-8"
     inkscape:window-maximized="1" />
  <metadata
     id="metadata5">
    <rdf:RDF>
      <cc:Work
         rdf:about="">
        <dc:format>image/svg+xml</dc:format>
        <dc:type
           rdf:resource="http://purl.org/dc/dcmitype/StillImage" />
        <dc:title></dc:title>
      </cc:Work>
    </rdf:RDF>
  </metadata>
  <g
     inkscape:label="Calque 1"
     inkscape:groupmode="layer"
     id="layer1"
     transform="translate(0,160.20002)">
    <g
       id="g930"
       inkscape:label="0"
       transform="matrix(0.26458333,0,0,0.26458333,89.20238,-308.48417)">
      <path
         id="path832"
         style="fill:none;stroke:#ff0000;stroke-width:0.096;stroke-linecap:round;stroke-opacity:1;stroke-miterlimit:4;stroke-dasharray:none"
         d="m -235.84252,1077.1654 a 6.047245,6.047245 0 1 0 -12.09449,0 6.047245,6.047245 0 1 0 12.09449,0 z"
         inkscape:connector-curvature="0" />
      <path
         id="path834"
         style="fill:none;stroke:#ff0000;stroke-width:0.096;stroke-linecap:round;stroke-opacity:1;stroke-miterlimit:4;stroke-dasharray:none"
         d="m -235.84252,1031.811 a 6.047245,6.047245 0 1 0 -12.09449,0 6.047245,6.047245 0 1 0 12.09449,0 z"
         inkscape:connector-curvature="0" />
      <path
         id="path836"
         style="fill:none;stroke:#ff0000;stroke-width:0.096;stroke-linecap:round;stroke-opacity:1;stroke-miterlimit:4;stroke-dasharray:none"
         d="m -39.307087,880.62992 a 6.047244,6.047244 0 1 0 -12.094488,0 6.047244,6.047244 0 1 0 12.094488,0 z"
         inkscape:connector-curvature="0" />
      <path
         id="path838"
         style="fill:none;stroke:#ff0000;stroke-width:0.096;stroke-linecap:round;stroke-opacity:1;stroke-miterlimit:4;stroke-dasharray:none"
         d="m -84.661417,880.62992 a 6.0472445,6.0472445 0 1 0 -12.094489,0 6.0472445,6.0472445 0 1 0 12.094489,0 z"
         inkscape:connector-curvature="0" />
      <path
         id="path840"
         style="fill:none;stroke:#ff0000;stroke-width:0.096;stroke-linecap:round;stroke-opacity:1;stroke-miterlimit:4;stroke-dasharray:none"
         d="m 247.93701,1031.811 a 6.047245,6.047245 0 1 0 -12.09449,0 6.047245,6.047245 0 1 0 12.09449,0 z"
         inkscape:connector-curvature="0" />
      <path
         id="path842"
         style="fill:none;stroke:#ff0000;stroke-width:0.096;stroke-linecap:round;stroke-opacity:1;stroke-miterlimit:4;stroke-dasharray:none"
         d="m -235.84252,1213.2283 a 6.047245,6.047245 0 1 0 -12.09449,0 6.047245,6.047245 0 1 0 12.09449,0 z"
         inkscape:connector-curvature="0" />
      <path
         id="path844"
         style="fill:none;stroke:#ff0000;stroke-width:0.096;stroke-linecap:round;stroke-opacity:1;stroke-miterlimit:4;stroke-dasharray:none"
         d="m 51.401575,880.62992 a 6.047244,6.047244 0 1 0 -12.094488,0 6.047244,6.047244 0 1 0 12.094488,0 z"
         inkscape:connector-curvature="0" />
      <path
         id="path846"
         style="fill:none;stroke:#ff0000;stroke-width:0.096;stroke-linecap:round;stroke-opacity:1;stroke-miterlimit:4;stroke-dasharray:none"
         d="m 247.93701,1167.874 a 6.047245,6.047245 0 1 0 -12.09449,0 6.047245,6.047245 0 1 0 12.09449,0 z"
         inkscape:connector-curvature="0" />
      <path
         id="path848"
         style="fill:none;stroke:#ff0000;stroke-width:0.096;stroke-linecap:round;stroke-opacity:1;stroke-miterlimit:4;stroke-dasharray:none"
         d="m -39.307087,1364.4094 a 6.047244,6.047244 0 1 0 -12.094488,0 6.047244,6.047244 0 1 0 12.094488,0 z"
         inkscape:connector-curvature="0" />
      <path
         id="path850"
         style="fill:none;stroke:#ff0000;stroke-width:0.096;stroke-linecap:round;stroke-opacity:1;stroke-miterlimit:4;stroke-dasharray:none"
         d="m 96.755906,880.62992 a 6.0472445,6.0472445 0 1 0 -12.094489,0 6.0472445,6.0472445 0 1 0 12.094489,0 z"
         inkscape:connector-curvature="0" />
      <path
         id="path852"
         style="fill:none;stroke:#ff0000;stroke-width:0.096;stroke-linecap:round;stroke-opacity:1;stroke-miterlimit:4;stroke-dasharray:none"
         d="m 247.93701,1213.2283 a 6.047245,6.047245 0 1 0 -12.09449,0 6.047245,6.047245 0 1 0 12.09449,0 z"
         inkscape:connector-curvature="0" />
      <path
         id="path854"
         style="fill:none;stroke:#ff0000;stroke-width:0.096;stroke-linecap:round;stroke-opacity:1;stroke-miterlimit:4;stroke-dasharray:none"
         d="m -84.661417,1364.4094 a 6.0472445,6.0472445 0 1 0 -12.094489,0 6.0472445,6.0472445 0 1 0 12.094489,0 z"
         inkscape:connector-curvature="0" />
      <path
         id="path856"
         style="fill:none;stroke:#ff0000;stroke-width:0.096;stroke-linecap:round;stroke-opacity:1;stroke-miterlimit:4;stroke-dasharray:none"
         d="m 247.93701,1077.1654 a 6.047245,6.047245 0 1 0 -12.09449,0 6.047245,6.047245 0 1 0 12.09449,0 z"
         inkscape:connector-curvature="0" />
      <path
         id="path858"
         style="fill:none;stroke:#ff0000;stroke-width:0.096;stroke-linecap:round;stroke-opacity:1;stroke-miterlimit:4;stroke-dasharray:none"
         d="m 51.401575,1364.4094 a 6.047244,6.047244 0 1 0 -12.094488,0 6.047244,6.047244 0 1 0 12.094488,0 z"
         inkscape:connector-curvature="0" />
      <path
         id="path860"
         style="fill:none;stroke:#ff0000;stroke-width:0.096;stroke-linecap:round;stroke-opacity:1;stroke-miterlimit:4;stroke-dasharray:none"
         d="m -235.84252,1167.874 a 6.047245,6.047245 0 1 0 -12.09449,0 6.047245,6.047245 0 1 0 12.09449,0 z"
         inkscape:connector-curvature="0" />
      <path
         id="path862"
         style="fill:none;stroke:#ff0000;stroke-width:0.096;stroke-linecap:round;stroke-opacity:1;stroke-miterlimit:4;stroke-dasharray:none"
         d="m 247.78695,1272.9009 a 4.913386,4.913386 0 1 0 -9.82677,0 4.913386,4.913386 0 1 0 9.82677,0 z"
         inkscape:connector-curvature="0" />
      <path
         id="path864"
         style="fill:none;stroke:#ff0000;stroke-width:0.096;stroke-linecap:round;stroke-opacity:1;stroke-miterlimit:4;stroke-dasharray:none"
         d="m -45.653927,1403.6692 a 4.913386,4.913386 0 1 0 -9.826772,0 4.913386,4.913386 0 1 0 9.826772,0 z"
         inkscape:connector-curvature="0" />
      <path
         id="path866"
         style="fill:none;stroke:#ff0000;stroke-width:0.096;stroke-linecap:round;stroke-opacity:1;stroke-miterlimit:4;stroke-dasharray:none"
         d="m -237.96018,972.13846 a 4.913386,4.913386 0 1 0 -9.82677,0 4.913386,4.913386 0 1 0 9.82677,0 z"
         inkscape:connector-curvature="0" />
      <path
         id="path868"
         style="fill:none;stroke:#ff0000;stroke-width:0.096;stroke-linecap:round;stroke-opacity:1;stroke-miterlimit:4;stroke-dasharray:none"
         d="m 55.480699,841.37021 a 4.913386,4.913386 0 1 0 -9.826772,0 4.913386,4.913386 0 1 0 9.826772,0 z"
         inkscape:connector-curvature="0" />
      <path
         id="path870"
         style="fill:none;stroke:#ff0000;stroke-width:0.096;stroke-linecap:round;stroke-opacity:1;stroke-miterlimit:4;stroke-dasharray:none"
         d="m -95.28189,719.28189 a 8.57953,8.57953 0 1 0 -17.15906,0 8.57953,8.57953 0 1 0 17.15906,0 z"
         inkscape:connector-curvature="0" />
      <path
         id="path872"
         style="fill:none;stroke:#ff0000;stroke-width:0.096;stroke-linecap:round;stroke-opacity:1;stroke-miterlimit:4;stroke-dasharray:none"
         d="m 112.44095,719.28189 a 8.57953,8.57953 0 1 0 -17.15906,0 8.57953,8.57953 0 1 0 17.15906,0 z"
         inkscape:connector-curvature="0" />
      <path
         id="path874"
         style="fill:none;stroke:#ff0000;stroke-width:0.096;stroke-linecap:round;stroke-opacity:1;stroke-miterlimit:4;stroke-dasharray:none"
         d="m 166.80379,1550.5119 a 4.913386,4.913386 0 1 0 -9.82677,0 4.913386,4.913386 0 1 0 9.82677,0 z"
         inkscape:connector-curvature="0" />
      <path
         id="path876"
         style="fill:none;stroke:#ff0000;stroke-width:0.096;stroke-linecap:round;stroke-opacity:1;stroke-miterlimit:4;stroke-dasharray:none"
         d="m 81.178599,1402.2047 a 4.913386,4.913386 0 1 0 -9.826772,0 4.913386,4.913386 0 1 0 9.826772,0 z"
         inkscape:connector-curvature="0" />
      <path
         id="path878"
         style="fill:none;stroke:#ff0000;stroke-width:0.096;stroke-linecap:round;stroke-opacity:1;stroke-miterlimit:4;stroke-dasharray:none"
         d="m 99.401575,662.58898 a 4.913386,4.913386 0 1 0 -9.826772,0 4.913386,4.913386 0 1 0 9.826772,0 z"
         inkscape:connector-curvature="0" />
      <path
         id="path880"
         style="fill:none;stroke:#ff0000;stroke-width:0.096;stroke-linecap:round;stroke-opacity:1;stroke-miterlimit:4;stroke-dasharray:none"
         d="m 52.15748,662.58898 a 4.913386,4.913386 0 1 0 -9.826771,0 4.913386,4.913386 0 1 0 9.826771,0 z"
         inkscape:connector-curvature="0" />
      <path
         id="path882"
         style="fill:none;stroke:#ff0000;stroke-width:0.096;stroke-linecap:round;stroke-opacity:1;stroke-miterlimit:4;stroke-dasharray:none"
         d="m -42.330709,662.58898 a 4.913386,4.913386 0 1 0 -9.826771,0 4.913386,4.913386 0 1 0 9.826771,0 z"
         inkscape:connector-curvature="0" />
      <path
         id="path884"
         style="fill:none;stroke:#ff0000;stroke-width:0.096;stroke-linecap:round;stroke-opacity:1;stroke-miterlimit:4;stroke-dasharray:none"
         d="m -89.574803,662.58898 a 4.913386,4.913386 0 1 0 -9.826772,0 4.913386,4.913386 0 1 0 9.826772,0 z"
         inkscape:connector-curvature="0" />
      <path
         id="path886"
         style="fill:none;stroke:#ff0000;stroke-width:0.096;stroke-linecap:round;stroke-opacity:1;stroke-miterlimit:4;stroke-dasharray:none"
         d="M 294.45105,1475.2501 V 1009.6057"
         inkscape:connector-curvature="0" />
      <path
         id="path888"
         style="fill:none;stroke:#ff0000;stroke-width:0.096;stroke-linecap:round;stroke-opacity:1;stroke-miterlimit:4;stroke-dasharray:none"
         d="M 188.97638,1765.0394 294.45105,1475.2501"
         inkscape:connector-curvature="0" />
      <path
         id="path890"
         style="fill:none;stroke:#ff0000;stroke-width:0.096;stroke-linecap:round;stroke-opacity:1;stroke-miterlimit:4;stroke-dasharray:none"
         d="M -188.97638,1765.0394 H 188.97638"
         inkscape:connector-curvature="0" />
      <path
         id="path892"
         style="fill:none;stroke:#ff0000;stroke-width:0.096;stroke-linecap:round;stroke-opacity:1;stroke-miterlimit:4;stroke-dasharray:none"
         d="m -294.45105,1475.2501 105.47467,289.7893"
         inkscape:connector-curvature="0" />
      <path
         id="path894"
         style="fill:none;stroke:#ff0000;stroke-width:0.096;stroke-linecap:round;stroke-opacity:1;stroke-miterlimit:4;stroke-dasharray:none"
         d="m -294.45105,1009.6057 v 465.6444"
         inkscape:connector-curvature="0" />
      <path
         id="path896"
         style="fill:none;stroke:#ff0000;stroke-width:0.096;stroke-linecap:round;stroke-opacity:1;stroke-miterlimit:4;stroke-dasharray:none"
         d="m -122.83465,593.38583 -171.6164,416.21987"
         inkscape:connector-curvature="0" />
      <path
         id="path898"
         style="fill:none;stroke:#ff0000;stroke-width:0.096;stroke-linecap:round;stroke-opacity:1;stroke-miterlimit:4;stroke-dasharray:none"
         d="m 122.83465,593.38583 h -245.6693"
         inkscape:connector-curvature="0" />
      <path
         id="path900"
         style="fill:none;stroke:#ff0000;stroke-width:0.096;stroke-linecap:round;stroke-opacity:1;stroke-miterlimit:4;stroke-dasharray:none"
         d="M 294.45105,1009.6057 122.83465,593.38583"
         inkscape:connector-curvature="0" />
      <path
         id="path902"
         style="fill:none;stroke:#ff0000;stroke-width:0.096;stroke-linecap:round;stroke-opacity:1;stroke-miterlimit:4;stroke-dasharray:none"
         d="m -246.21694,1275.6905 61.538,138.0898"
         inkscape:connector-curvature="0" />
      <path
         id="path904"
         style="fill:none;stroke:#ff0000;stroke-width:0.096;stroke-linecap:round;stroke-opacity:1;stroke-miterlimit:4;stroke-dasharray:none"
         d="m -125.99077,1387.6266 -61.538,-138.0898"
         inkscape:connector-curvature="0" />
      <path
         id="path906"
         style="fill:none;stroke:#ff0000;stroke-width:0.096;stroke-linecap:round;stroke-opacity:1;stroke-miterlimit:4;stroke-dasharray:none"
         d="m -201.20539,953.56956 86.30615,-38.46126"
         inkscape:connector-curvature="0" />
      <path
         id="path908"
         style="fill:none;stroke:#ff0000;stroke-width:0.096;stroke-linecap:round;stroke-opacity:1;stroke-miterlimit:4;stroke-dasharray:none"
         d="m -133.36065,873.68136 -86.30614,38.46125"
         inkscape:connector-curvature="0" />
      <path
         id="path910"
         style="fill:none;stroke:#ff0000;stroke-width:0.096;stroke-linecap:round;stroke-opacity:1;stroke-miterlimit:4;stroke-dasharray:none"
         d="m 120.0333,1397.9864 103.56737,-46.1535"
         inkscape:connector-curvature="0" />
      <path
         id="path912"
         style="fill:none;stroke:#ff0000;stroke-width:0.096;stroke-linecap:round;stroke-opacity:1;stroke-miterlimit:4;stroke-dasharray:none"
         d="M 197.44702,1293.1447 93.879647,1339.2982"
         inkscape:connector-curvature="0" />
      <path
         id="path914"
         style="fill:none;stroke:#ff0000;stroke-width:0.096;stroke-linecap:round;stroke-opacity:1;stroke-miterlimit:4;stroke-dasharray:none"
         d="m -184.67894,1413.7803 a 32.125992,32.125992 0 0 0 58.68817,-26.1537"
         inkscape:connector-curvature="0" />
      <path
         id="path916"
         style="fill:none;stroke:#ff0000;stroke-width:0.096;stroke-linecap:round;stroke-opacity:1;stroke-miterlimit:4;stroke-dasharray:none"
         d="m -187.52877,1249.5368 a 32.125992,32.125992 0 0 0 -58.68817,26.1537"
         inkscape:connector-curvature="0" />
      <path
         id="path918"
         style="fill:none;stroke:#ff0000;stroke-width:0.096;stroke-linecap:round;stroke-opacity:1;stroke-miterlimit:4;stroke-dasharray:none"
         d="m -114.89924,915.1083 a 22.677165,22.677165 0 0 0 -18.46141,-41.42694"
         inkscape:connector-curvature="0" />
      <path
         id="path920"
         style="fill:none;stroke:#ff0000;stroke-width:0.096;stroke-linecap:round;stroke-opacity:1;stroke-miterlimit:4;stroke-dasharray:none"
         d="m -219.66679,912.14261 a 22.677166,22.677166 0 0 0 18.4614,41.42695"
         inkscape:connector-curvature="0" />
      <path
         id="path922"
         style="fill:none;stroke:#ff0000;stroke-width:0.096;stroke-linecap:round;stroke-opacity:1;stroke-miterlimit:4;stroke-dasharray:none"
         d="m 223.60067,1351.8329 a 32.125995,32.125995 0 0 0 -26.15365,-58.6882"
         inkscape:connector-curvature="0" />
      <path
         id="path924"
         style="fill:none;stroke:#ff0000;stroke-width:0.096;stroke-linecap:round;stroke-opacity:1;stroke-miterlimit:4;stroke-dasharray:none"
         d="m 93.879647,1339.2982 a 32.125996,32.125996 0 0 0 26.153653,58.6882"
         inkscape:connector-curvature="0" />
    </g>
  </g>
</svg>
